<svg xmlns="http://www.w3.org/2000/svg" xmlns:xlink="http://www.w3.org/1999/xlink" xmlns:serif="http://www.serif.com/" width="100%" height="100%" viewBox="0 0 512 512" xml:space="preserve" style="fill-rule:evenodd;clip-rule:evenodd;stroke-linejoin:round;stroke-miterlimit:2;"> <g transform="matrix(5.62637,0,0,5.62637,-590.769,-540.132)"> <path d="M104.8,95.21L104.8,186.99L182.51,186.99C188.78,186.99 193.98,191.57 194.93,197.58L196.14,197.58L196.14,107.79C196.14,100.84 190.51,95.21 183.56,95.21L104.8,95.21Z" style="fill:rgb(0,102,208);fill-rule:nonzero;"></path> </g> <g transform="matrix(5.62637,0,0,5.62637,-590.769,-540.132)"> <path d="M152.65,170.94L152.65,157.19L150.6,153.84L148.3,157.19L148.3,170.94L146.23,171.74L146.23,173.37L154.71,173.37L154.71,171.74L152.65,170.94Z" style="fill:white;fill-rule:nonzero;"></path> <g> <path d="M150.52,140.36C152.34,138.1 153.37,135.12 153.37,132.05C153.37,128.75 152.34,125.68 150.52,123.51C148.7,125.68 147.67,128.75 147.67,132.05C147.67,135.11 148.7,138.1 150.52,140.36Z" style="fill:white;fill-rule:nonzero;"></path> <path d="M136.3,119.48C135.74,122.26 136.3,125.45 137.89,128.34C139.36,131.03 141.69,133.15 144.37,134.27C144.89,131.41 144.37,128.3 142.9,125.61C141.32,122.71 138.94,120.52 136.3,119.48Z" style="fill:white;fill-rule:nonzero;"></path> <path d="M138.3,108.41C137.74,111.19 138.3,114.38 139.89,117.27C141.33,119.92 143.72,122.09 146.37,123.2C146.89,120.34 146.37,117.23 144.9,114.54C143.32,111.64 140.94,109.44 138.3,108.41Z" style="fill:white;fill-rule:nonzero;"></path> <path d="M158.18,125.61C156.71,128.3 156.19,131.41 156.71,134.27C159.39,133.16 161.73,131.03 163.19,128.34C164.77,125.44 165.33,122.26 164.78,119.48C162.14,120.52 159.76,122.71 158.19,125.61L158.18,125.61Z" style="fill:white;fill-rule:nonzero;"></path> <path d="M155.99,114.54C154.52,117.23 154,120.34 154.51,123.2C157.19,122.09 159.53,119.96 160.99,117.27C162.57,114.37 163.13,111.19 162.58,108.41C159.94,109.44 157.57,111.64 155.99,114.54Z" style="fill:white;fill-rule:nonzero;"></path> <path d="M169,146.89C166.31,145.42 163.2,144.9 160.34,145.42C161.45,148.1 163.58,150.44 166.27,151.9C169.17,153.48 172.35,154.04 175.13,153.49C174.1,150.85 171.9,148.48 169,146.9L169,146.89Z" style="fill:white;fill-rule:nonzero;"></path> <path d="M131.86,146.89C128.96,148.47 126.76,150.85 125.73,153.48C128.51,154.04 131.7,153.48 134.59,151.89C137.28,150.42 139.4,148.09 140.52,145.41C137.66,144.89 134.55,145.41 131.86,146.88L131.86,146.89Z" style="fill:white;fill-rule:nonzero;"></path> <path d="M126.92,137.32C123.94,135.91 120.72,135.53 117.98,136.25C119.17,138.82 121.5,141.07 124.48,142.48C127.25,143.79 130.38,144.13 133.21,143.45C131.95,140.84 129.69,138.63 126.92,137.32Z" style="fill:white;fill-rule:nonzero;"></path> <path d="M182.96,136.25C180.22,135.53 177,135.91 174.02,137.32C171.25,138.63 168.99,140.84 167.73,143.45C170.55,144.13 173.69,143.79 176.46,142.48C179.44,141.07 181.78,138.83 182.96,136.25Z" style="fill:white;fill-rule:nonzero;"></path> <path d="M171.86,127.5C168.91,128.33 166.32,130.14 164.64,132.5C167.31,133.64 170.46,133.82 173.41,132.99C176.58,132.1 179.26,130.27 180.85,127.93C178.27,126.77 175.03,126.61 171.86,127.5Z" style="fill:white;fill-rule:nonzero;"></path> <path d="M129.43,127.5C126.25,126.61 123.02,126.77 120.44,127.93C122.04,130.28 124.71,132.1 127.88,132.99C130.83,133.82 133.98,133.64 136.65,132.5C134.97,130.13 132.38,128.33 129.43,127.5Z" style="fill:white;fill-rule:nonzero;"></path> <path d="M126.82,112.45C126.22,114.81 126.54,117.57 127.75,120.14C128.85,122.49 130.77,124.48 132.97,125.59C133.53,123.18 133.23,120.43 132.13,118.09C130.93,115.52 129.02,113.5 126.82,112.45Z" style="fill:white;fill-rule:nonzero;"></path> <path d="M169.03,118.1C167.93,120.44 167.64,123.19 168.19,125.6C170.4,124.48 172.31,122.49 173.41,120.15C174.61,117.58 174.94,114.82 174.34,112.46C172.14,113.52 170.23,115.54 169.03,118.1Z" style="fill:white;fill-rule:nonzero;"></path> <path d="M150.62,119.45C152.14,117.47 152.98,114.9 152.94,112.27C152.9,109.43 151.99,106.81 150.42,104.94C148.9,106.85 148.06,109.5 148.1,112.34C148.14,114.93 149.07,117.53 150.62,119.46L150.62,119.45Z" style="fill:white;fill-rule:nonzero;"></path> <path d="M141.6,149.9C139.85,152.36 138.94,155.45 139.1,158.32C141.89,157.54 144.46,155.71 146.24,153.21C148.16,150.52 149.1,147.43 148.87,144.6C146.13,145.31 143.51,147.21 141.59,149.9L141.6,149.9Z" style="fill:white;fill-rule:nonzero;"></path> <path d="M159.35,149.9C157.43,147.21 154.81,145.31 152.07,144.6C151.85,147.43 152.79,150.52 154.7,153.21C156.48,155.71 159.05,157.54 161.85,158.32C162.02,155.42 161.13,152.39 159.35,149.9Z" style="fill:white;fill-rule:nonzero;"></path> <path d="M168.75,137.04C166.04,136 162.89,135.93 159.97,136.87C156.83,137.88 154.23,139.8 152.71,142.2C155.33,143.27 158.57,143.31 161.71,142.3C164.63,141.36 167.15,139.47 168.74,137.04L168.75,137.04Z" style="fill:white;fill-rule:nonzero;"></path> <path d="M141.11,136.81C138.19,135.87 135.04,135.94 132.33,136.98C133.92,139.41 136.45,141.3 139.36,142.24C142.51,143.25 145.74,143.21 148.36,142.14C146.85,139.74 144.25,137.82 141.1,136.81L141.11,136.81Z" style="fill:white;fill-rule:nonzero;"></path> </g> </g> </svg>